<svg width="160" height="133" viewBox="0 0 160 133" fill="none" xmlns="http://www.w3.org/2000/svg">
<path d="M23.2266 6.09375V26H19.125V6.09375H23.2266ZM34.957 6.09375L27.3281 17.7832H22.3105L21.791 14.1328H25.1406L29.9805 6.09375H34.957ZM30.7324 26L25.1543 17.0996L27.998 14.1738L35.5996 26H30.7324ZM44.9512 22.6641V16.0742C44.9512 15.6003 44.8737 15.1947 44.7188 14.8574C44.5638 14.5111 44.3223 14.2422 43.9941 14.0508C43.6751 13.8594 43.2604 13.7637 42.75 13.7637C42.3125 13.7637 41.9342 13.8411 41.6152 13.9961C41.2962 14.1419 41.0501 14.3561 40.877 14.6387C40.7038 14.9121 40.6172 15.2357 40.6172 15.6094H36.6797C36.6797 14.9805 36.8255 14.3835 37.1172 13.8184C37.4089 13.2533 37.8327 12.7565 38.3887 12.3281C38.9447 11.8906 39.6055 11.5488 40.3711 11.3027C41.1458 11.0566 42.0117 10.9336 42.9688 10.9336C44.1172 10.9336 45.138 11.125 46.0312 11.5078C46.9245 11.8906 47.6263 12.4648 48.1367 13.2305C48.6562 13.9961 48.916 14.9531 48.916 16.1016V22.4316C48.916 23.2428 48.9661 23.9082 49.0664 24.4277C49.1667 24.9382 49.3125 25.3848 49.5039 25.7676V26H45.5254C45.334 25.599 45.1882 25.0977 45.0879 24.4961C44.9967 23.8854 44.9512 23.2747 44.9512 22.6641ZM45.4707 16.9902L45.498 19.2188H43.2969C42.7773 19.2188 42.3262 19.278 41.9434 19.3965C41.5605 19.515 41.2461 19.6836 41 19.9023C40.7539 20.112 40.5716 20.3581 40.4531 20.6406C40.3438 20.9232 40.2891 21.2331 40.2891 21.5703C40.2891 21.9076 40.3665 22.2129 40.5215 22.4863C40.6764 22.7507 40.8997 22.9603 41.1914 23.1152C41.4831 23.2611 41.8249 23.334 42.2168 23.334C42.8092 23.334 43.3242 23.2155 43.7617 22.9785C44.1992 22.7415 44.5365 22.4499 44.7734 22.1035C45.0195 21.7572 45.1471 21.429 45.1562 21.1191L46.1953 22.7871C46.0495 23.1608 45.849 23.5482 45.5938 23.9492C45.3477 24.3503 45.0332 24.7285 44.6504 25.084C44.2676 25.4303 43.8073 25.7174 43.2695 25.9453C42.7318 26.1641 42.0938 26.2734 41.3555 26.2734C40.4167 26.2734 39.5645 26.0866 38.7988 25.7129C38.0423 25.3301 37.4408 24.806 36.9941 24.1406C36.5566 23.4661 36.3379 22.7005 36.3379 21.8438C36.3379 21.069 36.4837 20.3809 36.7754 19.7793C37.0671 19.1777 37.4954 18.6719 38.0605 18.2617C38.6348 17.8424 39.3503 17.528 40.207 17.3184C41.0638 17.0996 42.0573 16.9902 43.1875 16.9902H45.4707ZM56.1484 11.207V26H52.2109V11.207H56.1484ZM65.7598 11.207L59.3887 20.4629H55.4512L54.9727 16.8262H57.584L60.7695 11.207H65.7598ZM60.9473 26L57.3105 19.752L60.7422 17.8516L66.2246 26H60.9473ZM66.4434 18.7539V18.4668C66.4434 17.3822 66.5983 16.3841 66.9082 15.4727C67.2181 14.5521 67.6693 13.7546 68.2617 13.0801C68.8542 12.4056 69.5833 11.8815 70.4492 11.5078C71.3151 11.125 72.3086 10.9336 73.4297 10.9336C74.5508 10.9336 75.5488 11.125 76.4238 11.5078C77.2988 11.8815 78.0326 12.4056 78.625 13.0801C79.2266 13.7546 79.6823 14.5521 79.9922 15.4727C80.3021 16.3841 80.457 17.3822 80.457 18.4668V18.7539C80.457 19.8294 80.3021 20.8275 79.9922 21.748C79.6823 22.6595 79.2266 23.457 78.625 24.1406C78.0326 24.8151 77.3034 25.3392 76.4375 25.7129C75.5716 26.0866 74.5781 26.2734 73.457 26.2734C72.3359 26.2734 71.3379 26.0866 70.4629 25.7129C69.597 25.3392 68.8633 24.8151 68.2617 24.1406C67.6693 23.457 67.2181 22.6595 66.9082 21.748C66.5983 20.8275 66.4434 19.8294 66.4434 18.7539ZM70.3809 18.4668V18.7539C70.3809 19.3737 70.4355 19.9525 70.5449 20.4902C70.6543 21.028 70.8275 21.502 71.0645 21.9121C71.3105 22.3132 71.6296 22.6276 72.0215 22.8555C72.4134 23.0833 72.8919 23.1973 73.457 23.1973C74.0039 23.1973 74.4733 23.0833 74.8652 22.8555C75.2572 22.6276 75.5716 22.3132 75.8086 21.9121C76.0456 21.502 76.2188 21.028 76.3281 20.4902C76.4466 19.9525 76.5059 19.3737 76.5059 18.7539V18.4668C76.5059 17.8652 76.4466 17.3001 76.3281 16.7715C76.2188 16.2337 76.041 15.7598 75.7949 15.3496C75.5579 14.9303 75.2435 14.6022 74.8516 14.3652C74.4596 14.1283 73.9857 14.0098 73.4297 14.0098C72.8737 14.0098 72.3997 14.1283 72.0078 14.3652C71.625 14.6022 71.3105 14.9303 71.0645 15.3496C70.8275 15.7598 70.6543 16.2337 70.5449 16.7715C70.4355 17.3001 70.3809 17.8652 70.3809 18.4668ZM86.8008 20.5039L91.7637 11.207H95.7012V26H91.7637V16.6895L86.8008 26H82.8633V11.207H86.8008V20.5039ZM91.3125 5.25977H94.1152C94.1152 6.04362 93.9193 6.74089 93.5273 7.35156C93.1445 7.95312 92.5977 8.42708 91.8867 8.77344C91.1758 9.11068 90.3372 9.2793 89.3711 9.2793C87.9036 9.2793 86.7415 8.9056 85.8848 8.1582C85.0371 7.41081 84.6133 6.44466 84.6133 5.25977H87.4023C87.4023 5.73372 87.5482 6.15755 87.8398 6.53125C88.1406 6.90495 88.651 7.0918 89.3711 7.0918C90.082 7.0918 90.5833 6.90495 90.875 6.53125C91.1667 6.15755 91.3125 5.73372 91.3125 5.25977ZM113.242 11.207V26H109.291V11.207H113.242ZM118 11.207V14.2559H104.602V11.207H118ZM122.73 15.5957H127.023C128.372 15.5957 129.521 15.819 130.469 16.2656C131.426 16.7031 132.155 17.3138 132.656 18.0977C133.167 18.8815 133.422 19.7884 133.422 20.8184C133.422 21.5658 133.276 22.2585 132.984 22.8965C132.702 23.5254 132.287 24.0723 131.74 24.5371C131.193 25.002 130.523 25.362 129.73 25.6172C128.938 25.8724 128.035 26 127.023 26H120.27V11.207H124.221V22.9375H127.023C127.616 22.9375 128.09 22.8418 128.445 22.6504C128.81 22.4499 129.074 22.1901 129.238 21.8711C129.411 21.5521 129.498 21.2057 129.498 20.832C129.498 20.4401 129.411 20.0846 129.238 19.7656C129.074 19.4375 128.81 19.1732 128.445 18.9727C128.09 18.7721 127.616 18.6719 127.023 18.6719H122.73V15.5957ZM139.738 11.207V26H135.801V11.207H139.738Z" fill="white"/>
<path d="M28.1426 116.197C28.6257 116.197 29.054 116.106 29.4277 115.924C29.8014 115.732 30.0931 115.468 30.3027 115.131C30.5215 114.785 30.6354 114.379 30.6445 113.914H34.3496C34.3405 114.953 34.0625 115.878 33.5156 116.689C32.9688 117.492 32.235 118.125 31.3145 118.59C30.3939 119.046 29.3639 119.273 28.2246 119.273C27.0762 119.273 26.0736 119.082 25.2168 118.699C24.3691 118.316 23.6628 117.788 23.0977 117.113C22.5326 116.43 22.1087 115.637 21.8262 114.734C21.5436 113.823 21.4023 112.848 21.4023 111.809V111.412C21.4023 110.364 21.5436 109.389 21.8262 108.486C22.1087 107.575 22.5326 106.782 23.0977 106.107C23.6628 105.424 24.3691 104.891 25.2168 104.508C26.0645 104.125 27.0579 103.934 28.1973 103.934C29.4095 103.934 30.4714 104.166 31.3828 104.631C32.3034 105.096 33.0234 105.761 33.543 106.627C34.0716 107.484 34.3405 108.5 34.3496 109.676H30.6445C30.6354 109.184 30.5306 108.737 30.3301 108.336C30.1387 107.935 29.8561 107.616 29.4824 107.379C29.1178 107.133 28.6667 107.01 28.1289 107.01C27.5547 107.01 27.0853 107.133 26.7207 107.379C26.3561 107.616 26.0736 107.944 25.873 108.363C25.6725 108.773 25.5312 109.243 25.4492 109.771C25.3763 110.291 25.3398 110.838 25.3398 111.412V111.809C25.3398 112.383 25.3763 112.934 25.4492 113.463C25.5221 113.992 25.6589 114.461 25.8594 114.871C26.069 115.281 26.3561 115.605 26.7207 115.842C27.0853 116.079 27.5592 116.197 28.1426 116.197ZM43.4414 119.273C42.293 119.273 41.263 119.091 40.3516 118.727C39.4401 118.353 38.6654 117.838 38.0273 117.182C37.3984 116.525 36.9154 115.764 36.5781 114.898C36.2409 114.023 36.0723 113.094 36.0723 112.109V111.562C36.0723 110.441 36.2318 109.416 36.5508 108.486C36.8698 107.557 37.3255 106.75 37.918 106.066C38.5195 105.383 39.2487 104.859 40.1055 104.494C40.9622 104.12 41.9284 103.934 43.0039 103.934C44.0521 103.934 44.9818 104.107 45.793 104.453C46.6042 104.799 47.2832 105.292 47.8301 105.93C48.3861 106.568 48.8053 107.333 49.0879 108.227C49.3704 109.111 49.5117 110.095 49.5117 111.18V112.82H37.7539V110.195H45.6426V109.895C45.6426 109.348 45.5423 108.86 45.3418 108.432C45.1504 107.994 44.8587 107.648 44.4668 107.393C44.0749 107.137 43.5736 107.01 42.9629 107.01C42.4434 107.01 41.9967 107.124 41.623 107.352C41.2493 107.579 40.944 107.898 40.707 108.309C40.4792 108.719 40.306 109.202 40.1875 109.758C40.0781 110.305 40.0234 110.906 40.0234 111.562V112.109C40.0234 112.702 40.1055 113.249 40.2695 113.75C40.4427 114.251 40.6842 114.684 40.9941 115.049C41.3132 115.413 41.696 115.696 42.1426 115.896C42.5983 116.097 43.1133 116.197 43.6875 116.197C44.3984 116.197 45.0592 116.061 45.6699 115.787C46.2897 115.505 46.8229 115.081 47.2695 114.516L49.1836 116.594C48.8737 117.04 48.4499 117.469 47.9121 117.879C47.3835 118.289 46.7454 118.626 45.998 118.891C45.2507 119.146 44.3984 119.273 43.4414 119.273ZM61.8164 104.207V107.297H55.6641V119H51.7266V104.207H61.8164ZM62.6094 111.754V111.467C62.6094 110.382 62.7643 109.384 63.0742 108.473C63.3841 107.552 63.8353 106.755 64.4277 106.08C65.0202 105.406 65.7493 104.882 66.6152 104.508C67.4811 104.125 68.4746 103.934 69.5957 103.934C70.7168 103.934 71.7148 104.125 72.5898 104.508C73.4648 104.882 74.1986 105.406 74.791 106.08C75.3926 106.755 75.8483 107.552 76.1582 108.473C76.4681 109.384 76.623 110.382 76.623 111.467V111.754C76.623 112.829 76.4681 113.827 76.1582 114.748C75.8483 115.66 75.3926 116.457 74.791 117.141C74.1986 117.815 73.4694 118.339 72.6035 118.713C71.7376 119.087 70.7441 119.273 69.623 119.273C68.502 119.273 67.5039 119.087 66.6289 118.713C65.763 118.339 65.0293 117.815 64.4277 117.141C63.8353 116.457 63.3841 115.66 63.0742 114.748C62.7643 113.827 62.6094 112.829 62.6094 111.754ZM66.5469 111.467V111.754C66.5469 112.374 66.6016 112.952 66.7109 113.49C66.8203 114.028 66.9935 114.502 67.2305 114.912C67.4766 115.313 67.7956 115.628 68.1875 115.855C68.5794 116.083 69.0579 116.197 69.623 116.197C70.1699 116.197 70.6393 116.083 71.0312 115.855C71.4232 115.628 71.7376 115.313 71.9746 114.912C72.2116 114.502 72.3848 114.028 72.4941 113.49C72.6126 112.952 72.6719 112.374 72.6719 111.754V111.467C72.6719 110.865 72.6126 110.3 72.4941 109.771C72.3848 109.234 72.207 108.76 71.9609 108.35C71.724 107.93 71.4095 107.602 71.0176 107.365C70.6257 107.128 70.1517 107.01 69.5957 107.01C69.0397 107.01 68.5658 107.128 68.1738 107.365C67.791 107.602 67.4766 107.93 67.2305 108.35C66.9935 108.76 66.8203 109.234 66.7109 109.771C66.6016 110.3 66.5469 110.865 66.5469 111.467ZM80.7246 104.207H84.6621L84.5391 109.156C84.5026 110.742 84.3203 112.105 83.9922 113.244C83.6641 114.383 83.2266 115.34 82.6797 116.115C82.1328 116.89 81.5085 117.51 80.8066 117.975C80.1139 118.43 79.3848 118.772 78.6191 119H77.8809L77.8398 115.965L78.25 115.924C78.7148 115.441 79.0977 114.971 79.3984 114.516C79.6992 114.051 79.9316 113.563 80.0957 113.053C80.2598 112.542 80.3783 111.973 80.4512 111.344C80.5332 110.715 80.5833 109.986 80.6016 109.156L80.7246 104.207ZM81.791 104.207H91.5938V119H87.6699V107.365H81.791V104.207ZM76.9785 115.924H93.7129V123.443H89.7754V119H81.0117V123.443H76.9785V115.924ZM105.689 110.182V113.244H98.1699V110.182H105.689ZM99.4824 104.207V119H95.5449V104.207H99.4824ZM108.355 104.207V119H104.404V104.207H108.355ZM114.604 111.617H118.596L114.48 119H110.502L114.604 111.617ZM117.256 104.207H123.75V119H119.812V107.256H117.256C116.718 107.256 116.271 107.356 115.916 107.557C115.561 107.748 115.296 107.999 115.123 108.309C114.959 108.609 114.877 108.919 114.877 109.238C114.877 109.548 114.959 109.849 115.123 110.141C115.287 110.432 115.542 110.674 115.889 110.865C116.235 111.057 116.668 111.152 117.188 111.152H121.275V113.832H117.188C116.212 113.832 115.337 113.714 114.562 113.477C113.797 113.24 113.141 112.911 112.594 112.492C112.056 112.064 111.641 111.567 111.35 111.002C111.067 110.428 110.926 109.799 110.926 109.115C110.926 108.404 111.072 107.753 111.363 107.16C111.655 106.568 112.074 106.048 112.621 105.602C113.168 105.155 113.829 104.813 114.604 104.576C115.387 104.33 116.271 104.207 117.256 104.207ZM140.771 112.916H137.285C137.294 112.096 137.358 111.389 137.477 110.797C137.604 110.195 137.818 109.653 138.119 109.17C138.429 108.687 138.839 108.208 139.35 107.734C139.778 107.352 140.152 106.987 140.471 106.641C140.79 106.294 141.04 105.939 141.223 105.574C141.405 105.201 141.496 104.786 141.496 104.33C141.496 103.801 141.414 103.364 141.25 103.018C141.095 102.662 140.858 102.393 140.539 102.211C140.229 102.029 139.837 101.938 139.363 101.938C138.971 101.938 138.607 102.024 138.27 102.197C137.932 102.361 137.654 102.617 137.436 102.963C137.226 103.309 137.117 103.765 137.107 104.33H133.143C133.17 103.081 133.457 102.051 134.004 101.24C134.56 100.42 135.303 99.8138 136.232 99.4219C137.162 99.0208 138.206 98.8203 139.363 98.8203C140.639 98.8203 141.733 99.0299 142.645 99.4492C143.556 99.8594 144.253 100.465 144.736 101.268C145.219 102.061 145.461 103.027 145.461 104.166C145.461 104.959 145.306 105.665 144.996 106.285C144.686 106.896 144.281 107.465 143.779 107.994C143.278 108.523 142.727 109.07 142.125 109.635C141.605 110.1 141.25 110.587 141.059 111.098C140.876 111.608 140.781 112.214 140.771 112.916ZM136.875 117.141C136.875 116.557 137.076 116.074 137.477 115.691C137.878 115.299 138.415 115.104 139.09 115.104C139.755 115.104 140.288 115.299 140.689 115.691C141.1 116.074 141.305 116.557 141.305 117.141C141.305 117.706 141.1 118.184 140.689 118.576C140.288 118.968 139.755 119.164 139.09 119.164C138.415 119.164 137.878 118.968 137.477 118.576C137.076 118.184 136.875 117.706 136.875 117.141Z" fill="white"/>
<path d="M44.0156 61.207V76H40.0781V61.207H44.0156ZM53.627 61.207L47.2559 70.4629H43.3184L42.8398 66.8262H45.4512L48.6367 61.207H53.627ZM48.8145 76L45.1777 69.752L48.6094 67.8516L54.0918 76H48.8145ZM54.3105 68.7539V68.4668C54.3105 67.3822 54.4655 66.3841 54.7754 65.4727C55.0853 64.5521 55.5365 63.7546 56.1289 63.0801C56.7214 62.4056 57.4505 61.8815 58.3164 61.5078C59.1823 61.125 60.1758 60.9336 61.2969 60.9336C62.418 60.9336 63.416 61.125 64.291 61.5078C65.166 61.8815 65.8997 62.4056 66.4922 63.0801C67.0938 63.7546 67.5495 64.5521 67.8594 65.4727C68.1693 66.3841 68.3242 67.3822 68.3242 68.4668V68.7539C68.3242 69.8294 68.1693 70.8275 67.8594 71.748C67.5495 72.6595 67.0938 73.457 66.4922 74.1406C65.8997 74.8151 65.1706 75.3392 64.3047 75.7129C63.4388 76.0866 62.4453 76.2734 61.3242 76.2734C60.2031 76.2734 59.2051 76.0866 58.3301 75.7129C57.4642 75.3392 56.7305 74.8151 56.1289 74.1406C55.5365 73.457 55.0853 72.6595 54.7754 71.748C54.4655 70.8275 54.3105 69.8294 54.3105 68.7539ZM58.248 68.4668V68.7539C58.248 69.3737 58.3027 69.9525 58.4121 70.4902C58.5215 71.028 58.6947 71.502 58.9316 71.9121C59.1777 72.3132 59.4967 72.6276 59.8887 72.8555C60.2806 73.0833 60.7591 73.1973 61.3242 73.1973C61.8711 73.1973 62.3405 73.0833 62.7324 72.8555C63.1243 72.6276 63.4388 72.3132 63.6758 71.9121C63.9128 71.502 64.0859 71.028 64.1953 70.4902C64.3138 69.9525 64.373 69.3737 64.373 68.7539V68.4668C64.373 67.8652 64.3138 67.3001 64.1953 66.7715C64.0859 66.2337 63.9082 65.7598 63.6621 65.3496C63.4251 64.9303 63.1107 64.6022 62.7188 64.3652C62.3268 64.1283 61.8529 64.0098 61.2969 64.0098C60.7409 64.0098 60.2669 64.1283 59.875 64.3652C59.4922 64.6022 59.1777 64.9303 58.9316 65.3496C58.6947 65.7598 58.5215 66.2337 58.4121 66.7715C58.3027 67.3001 58.248 67.8652 58.248 68.4668ZM77.8945 61.207V76H73.9434V61.207H77.8945ZM82.6523 61.207V64.2559H69.2539V61.207H82.6523ZM88.5859 70.5039L93.5488 61.207H97.4863V76H93.5488V66.6895L88.5859 76H84.6484V61.207H88.5859V70.5039ZM104.719 61.207V76H100.781V61.207H104.719ZM114.33 61.207L107.959 70.4629H104.021L103.543 66.8262H106.154L109.34 61.207H114.33ZM109.518 76L105.881 69.752L109.312 67.8516L114.795 76H109.518Z" fill="white"/>
<path d="M22 53.5L16.6987 36.7806C16.2025 35.2156 17.6991 33.7523 19.2526 34.2838L34.5 39.5" stroke="white" stroke-width="3" stroke-linecap="round"/>
<path d="M134.5 53L139.775 36.7705C140.282 35.2093 138.796 33.7355 137.239 34.2552L122 39.3415" stroke="white" stroke-width="3" stroke-linecap="round"/>
<path d="M27 72L11 68" stroke="white" stroke-width="3" stroke-linecap="round"/>
<path d="M28.0533 77.6238L7 84.6423" stroke="white" stroke-width="3" stroke-linecap="round"/>
<path d="M30.8128 82.0948L22.7994 95.4443" stroke="white" stroke-width="3" stroke-linecap="round"/>
<path d="M129.187 72L144.187 68" stroke="white" stroke-width="3" stroke-linecap="round"/>
<path d="M127.687 77.6238L148.187 84.6423" stroke="white" stroke-width="3" stroke-linecap="round"/>
<path d="M125 82.0948L132.803 95.4443" stroke="white" stroke-width="3" stroke-linecap="round"/>
</svg>
